<?xml version="1.0" encoding="UTF-8" standalone="no"?><svg xmlns="http://www.w3.org/2000/svg" xmlns:xlink="http://www.w3.org/1999/xlink" contentStyleType="text/css" height="548px" preserveAspectRatio="none" style="width:723px;height:548px;background:#FFFFFF;" version="1.1" viewBox="0 0 723 548" width="723px" zoomAndPan="magnify"><defs/><g><line style="stroke:#181818;stroke-width:0.5;stroke-dasharray:5.0,5.0;" x1="22" x2="22" y1="82.6094" y2="466.8281"/><line style="stroke:#181818;stroke-width:0.5;stroke-dasharray:5.0,5.0;" x1="216.5" x2="216.5" y1="82.6094" y2="466.8281"/><line style="stroke:#181818;stroke-width:0.5;stroke-dasharray:5.0,5.0;" x1="387" x2="387" y1="82.6094" y2="466.8281"/><line style="stroke:#181818;stroke-width:0.5;stroke-dasharray:5.0,5.0;" x1="688" x2="688" y1="82.6094" y2="466.8281"/><text fill="#000000" font-family="sans-serif" font-size="14" lengthAdjust="spacing" textLength="29" x="5" y="79.5332">User</text><ellipse cx="22.5" cy="13.5" fill="#E2E2F0" rx="8" ry="8" style="stroke:#181818;stroke-width:0.5;"/><path d="M22.5,21.5 L22.5,48.5 M9.5,29.5 L35.5,29.5 M22.5,48.5 L9.5,63.5 M22.5,48.5 L35.5,63.5 " fill="none" style="stroke:#181818;stroke-width:0.5;"/><text fill="#000000" font-family="sans-serif" font-size="14" lengthAdjust="spacing" textLength="29" x="5" y="480.3613">User</text><ellipse cx="22.5" cy="491.9375" fill="#E2E2F0" rx="8" ry="8" style="stroke:#181818;stroke-width:0.5;"/><path d="M22.5,499.9375 L22.5,526.9375 M9.5,507.9375 L35.5,507.9375 M22.5,526.9375 L9.5,541.9375 M22.5,526.9375 L35.5,541.9375 " fill="none" style="stroke:#181818;stroke-width:0.5;"/><rect fill="#E2E2F0" height="31.6094" rx="2.5" ry="2.5" style="stroke:#181818;stroke-width:0.5;" width="72" x="180.5" y="50"/><text fill="#000000" font-family="sans-serif" font-size="14" lengthAdjust="spacing" textLength="58" x="187.5" y="71.5332">Frontend</text><rect fill="#E2E2F0" height="31.6094" rx="2.5" ry="2.5" style="stroke:#181818;stroke-width:0.5;" width="72" x="180.5" y="465.8281"/><text fill="#000000" font-family="sans-serif" font-size="14" lengthAdjust="spacing" textLength="58" x="187.5" y="487.3613">Frontend</text><rect fill="#E2E2F0" height="31.6094" rx="2.5" ry="2.5" style="stroke:#181818;stroke-width:0.5;" width="69" x="353" y="50"/><text fill="#000000" font-family="sans-serif" font-size="14" lengthAdjust="spacing" textLength="55" x="360" y="71.5332">Backend</text><rect fill="#E2E2F0" height="31.6094" rx="2.5" ry="2.5" style="stroke:#181818;stroke-width:0.5;" width="69" x="353" y="465.8281"/><text fill="#000000" font-family="sans-serif" font-size="14" lengthAdjust="spacing" textLength="55" x="360" y="487.3613">Backend</text><text fill="#000000" font-family="sans-serif" font-size="14" lengthAdjust="spacing" textLength="61" x="655" y="79.5332">Database</text><path d="M670.5,29 C670.5,19 688.5,19 688.5,19 C688.5,19 706.5,19 706.5,29 L706.5,55 C706.5,65 688.5,65 688.5,65 C688.5,65 670.5,65 670.5,55 L670.5,29 " fill="#E2E2F0" style="stroke:#181818;stroke-width:1.5;"/><path d="M670.5,29 C670.5,39 688.5,39 688.5,39 C688.5,39 706.5,39 706.5,29 " fill="none" style="stroke:#181818;stroke-width:1.5;"/><text fill="#000000" font-family="sans-serif" font-size="14" lengthAdjust="spacing" textLength="61" x="655" y="480.3613">Database</text><path d="M670.5,493.4375 C670.5,483.4375 688.5,483.4375 688.5,483.4375 C688.5,483.4375 706.5,483.4375 706.5,493.4375 L706.5,519.4375 C706.5,529.4375 688.5,529.4375 688.5,529.4375 C688.5,529.4375 670.5,529.4375 670.5,519.4375 L670.5,493.4375 " fill="#E2E2F0" style="stroke:#181818;stroke-width:1.5;"/><path d="M670.5,493.4375 C670.5,503.4375 688.5,503.4375 688.5,503.4375 C688.5,503.4375 706.5,503.4375 706.5,493.4375 " fill="none" style="stroke:#181818;stroke-width:1.5;"/><polygon fill="#181818" points="204.5,110.9609,214.5,114.9609,204.5,118.9609,208.5,114.9609" style="stroke:#181818;stroke-width:1.0;"/><line style="stroke:#181818;stroke-width:1.0;" x1="22.5" x2="210.5" y1="114.9609" y2="114.9609"/><text fill="#000000" font-family="sans-serif" font-size="13" lengthAdjust="spacing" textLength="74" x="29.5" y="110.1045">POST: Login</text><polygon fill="#181818" points="375.5,141.3125,385.5,145.3125,375.5,149.3125,379.5,145.3125" style="stroke:#181818;stroke-width:1.0;"/><line style="stroke:#181818;stroke-width:1.0;" x1="216.5" x2="381.5" y1="145.3125" y2="145.3125"/><text fill="#000000" font-family="sans-serif" font-size="13" lengthAdjust="spacing" textLength="135" x="223.5" y="140.4561">Authentication Request</text><polygon fill="#181818" points="676.5,171.6641,686.5,175.6641,676.5,179.6641,680.5,175.6641" style="stroke:#181818;stroke-width:1.0;"/><line style="stroke:#181818;stroke-width:1.0;" x1="387.5" x2="682.5" y1="175.6641" y2="175.6641"/><text fill="#000000" font-family="sans-serif" font-size="13" lengthAdjust="spacing" textLength="131" x="394.5" y="170.8076">Check User Input Data</text><polygon fill="#181818" points="398.5,202.0156,388.5,206.0156,398.5,210.0156,394.5,206.0156" style="stroke:#181818;stroke-width:1.0;"/><line style="stroke:#181818;stroke-width:1.0;stroke-dasharray:2.0,2.0;" x1="392.5" x2="687.5" y1="206.0156" y2="206.0156"/><text fill="#000000" font-family="sans-serif" font-size="13" lengthAdjust="spacing" textLength="85" x="404.5" y="201.1592">User Validated</text><polygon fill="#181818" points="227.5,232.3672,217.5,236.3672,227.5,240.3672,223.5,236.3672" style="stroke:#181818;stroke-width:1.0;"/><line style="stroke:#181818;stroke-width:1.0;stroke-dasharray:2.0,2.0;" x1="221.5" x2="386.5" y1="236.3672" y2="236.3672"/><text fill="#000000" font-family="sans-serif" font-size="13" lengthAdjust="spacing" textLength="145" x="233.5" y="231.5107">Authentication Response</text><polygon fill="#181818" points="33.5,262.7188,23.5,266.7188,33.5,270.7188,29.5,266.7188" style="stroke:#181818;stroke-width:1.0;"/><line style="stroke:#181818;stroke-width:1.0;stroke-dasharray:2.0,2.0;" x1="27.5" x2="215.5" y1="266.7188" y2="266.7188"/><text fill="#000000" font-family="sans-serif" font-size="13" lengthAdjust="spacing" textLength="99" x="39.5" y="261.8623">Login Successful</text><polygon fill="#181818" points="204.5,293.0703,214.5,297.0703,204.5,301.0703,208.5,297.0703" style="stroke:#181818;stroke-width:1.0;"/><line style="stroke:#181818;stroke-width:1.0;" x1="22.5" x2="210.5" y1="297.0703" y2="297.0703"/><text fill="#000000" font-family="sans-serif" font-size="13" lengthAdjust="spacing" textLength="133" x="29.5" y="292.2139">GET: ListPopularPosts</text><polygon fill="#181818" points="375.5,323.4219,385.5,327.4219,375.5,331.4219,379.5,327.4219" style="stroke:#181818;stroke-width:1.0;"/><line style="stroke:#181818;stroke-width:1.0;" x1="216.5" x2="381.5" y1="327.4219" y2="327.4219"/><text fill="#000000" font-family="sans-serif" font-size="13" lengthAdjust="spacing" textLength="112" x="223.5" y="322.5654">GET Popular Posts</text><polygon fill="#181818" points="676.5,353.7734,686.5,357.7734,676.5,361.7734,680.5,357.7734" style="stroke:#181818;stroke-width:1.0;"/><line style="stroke:#181818;stroke-width:1.0;" x1="387.5" x2="682.5" y1="357.7734" y2="357.7734"/><text fill="#000000" font-family="sans-serif" font-size="13" lengthAdjust="spacing" textLength="136" x="394.5" y="352.917">SELECT Popular Posts</text><polygon fill="#181818" points="398.5,384.125,388.5,388.125,398.5,392.125,394.5,388.125" style="stroke:#181818;stroke-width:1.0;"/><line style="stroke:#181818;stroke-width:1.0;stroke-dasharray:2.0,2.0;" x1="392.5" x2="687.5" y1="388.125" y2="388.125"/><text fill="#000000" font-family="sans-serif" font-size="13" lengthAdjust="spacing" textLength="277" x="404.5" y="383.2686">RETURNS Popular Posts Ordered by Popularity</text><polygon fill="#181818" points="227.5,414.4766,217.5,418.4766,227.5,422.4766,223.5,418.4766" style="stroke:#181818;stroke-width:1.0;"/><line style="stroke:#181818;stroke-width:1.0;stroke-dasharray:2.0,2.0;" x1="221.5" x2="386.5" y1="418.4766" y2="418.4766"/><text fill="#000000" font-family="sans-serif" font-size="13" lengthAdjust="spacing" textLength="147" x="233.5" y="413.6201">RETURNS Popular Posts</text><polygon fill="#181818" points="33.5,444.8281,23.5,448.8281,33.5,452.8281,29.5,448.8281" style="stroke:#181818;stroke-width:1.0;"/><line style="stroke:#181818;stroke-width:1.0;stroke-dasharray:2.0,2.0;" x1="27.5" x2="215.5" y1="448.8281" y2="448.8281"/><text fill="#000000" font-family="sans-serif" font-size="13" lengthAdjust="spacing" textLength="170" x="39.5" y="443.9717">Returns Popular Posts Listed</text><!--SRC=[ROz1Ri8m44NtESLS81T0LQMQc0e9bIY1xeqz58l8JZtZ1RUlxK15K5Qsvdr_lr6QVO0ZOG15vQn65TXgEoh7i0dUCJgJuKREa53wUYT2LaQnEYb2Q1wND6z4LPhhz_GOLj3k-yCATlx7kYeDqbZayKVa2xfKhDXw1nt-HYIkH4aq8YNM5zJNoNBhniZbbnnug-ifKTYt6cmIGPFRCrgkfz4xmaajfufRiO8-Qer4vpZCpJzb5hV4hH_Ze4BhYUbvXnI0EuC9FkdtSYVN2_pVlfE7O_VLpnEm3mO36ZZT7i3oRRRQuhkNnJha61ozTETTqFm1]--></g></svg>